<svg xmlns="http://www.w3.org/2000/svg" width="482" height="450" fill="none"><rect width="482" height="450" fill="#fff" rx="12"/><rect width="434" height="86" x="24" y="40" fill="#020617" rx="12"/><path fill="#94A3B8" d="M49.408 73V61.72h1.328V73h-1.328zm3.997 0v-6.176a8.86 8.86 0 0 0-.048-.912 25.87 25.87 0 0 0-.08-.944h1.248l.16 1.76h-.192c.234-.619.608-1.088 1.12-1.408.522-.33 1.125-.496 1.808-.496.949 0 1.664.256 2.144.768.49.501.736 1.296.736 2.384V73h-1.296v-4.944c0-.757-.155-1.307-.464-1.648-.299-.352-.768-.528-1.408-.528-.747 0-1.339.23-1.776.688-.438.459-.656 1.072-.656 1.84V73h-1.296zm12.047.144a6.05 6.05 0 0 1-1.792-.256c-.555-.181-1.014-.432-1.376-.752l.448-.912c.394.31.821.539 1.28.688.469.15.954.224 1.456.224.64 0 1.12-.112 1.44-.336.33-.235.496-.555.496-.96 0-.31-.107-.555-.32-.736-.203-.192-.539-.341-1.008-.448l-1.488-.304c-.683-.15-1.195-.4-1.536-.752-.342-.363-.512-.821-.512-1.376 0-.47.122-.88.368-1.232.245-.363.602-.645 1.072-.848.469-.213 1.018-.32 1.648-.32.586 0 1.125.09 1.616.272.501.17.917.421 1.248.752l-.464.896a3.058 3.058 0 0 0-1.104-.688 3.412 3.412 0 0 0-1.264-.24c-.63 0-1.104.128-1.424.384a1.18 1.18 0 0 0-.464.976c0 .31.096.565.288.768.202.192.512.336.928.432l1.488.304c.725.16 1.264.41 1.616.752.362.33.544.779.544 1.344 0 .48-.134.901-.4 1.264-.267.352-.64.624-1.12.816-.47.192-1.024.288-1.664.288zM70.717 73v-8.032h1.296V73h-1.296zm-.16-9.856v-1.456h1.6v1.456h-1.6zm7.509 13.424a6.85 6.85 0 0 1-1.92-.256 4.895 4.895 0 0 1-1.584-.784l.384-.976c.33.235.656.421.976.56.32.139.65.24.992.304a5.08 5.08 0 0 0 1.088.112c.789 0 1.386-.208 1.792-.624.405-.416.608-1.008.608-1.776v-2.352h.16a2.622 2.622 0 0 1-1.056 1.504c-.534.363-1.158.544-1.872.544-.736 0-1.376-.16-1.92-.48a3.369 3.369 0 0 1-1.248-1.392c-.288-.608-.432-1.323-.432-2.144 0-.81.144-1.515.432-2.112a3.261 3.261 0 0 1 1.248-1.376c.544-.33 1.184-.496 1.92-.496.725 0 1.349.181 1.872.544.533.363.885.864 1.056 1.504l-.16-.16.144-1.744h1.264a13.538 13.538 0 0 0-.128 1.856v6.128c0 1.195-.31 2.096-.928 2.704-.608.608-1.504.912-2.688.912zm-.192-4.8c.778 0 1.392-.256 1.84-.768.448-.523.672-1.253.672-2.192 0-.939-.224-1.664-.672-2.176-.448-.512-1.062-.768-1.84-.768-.768 0-1.382.256-1.84.768-.459.512-.688 1.237-.688 2.176 0 .939.229 1.67.688 2.192.458.512 1.072.768 1.84.768zM84.17 73V61.224h1.296v5.52h-.208c.224-.63.598-1.104 1.12-1.424.534-.33 1.147-.496 1.84-.496.96 0 1.675.261 2.144.784.47.512.704 1.29.704 2.336V73H89.77v-4.976c0-.747-.15-1.29-.448-1.632-.288-.341-.757-.512-1.408-.512-.746 0-1.344.23-1.792.688-.437.459-.656 1.061-.656 1.808V73H84.17zm12.223.144c-.79 0-1.392-.224-1.808-.672-.416-.459-.624-1.147-.624-2.064v-4.432h-1.568v-1.008h1.568v-2.192l1.296-.368v2.56h2.304v1.008h-2.304v4.288c0 .64.107 1.099.32 1.376.224.267.555.4.992.4.203 0 .384-.016.544-.048.16-.043.304-.09.432-.144v1.088a2.23 2.23 0 0 1-.544.144 2.943 2.943 0 0 1-.608.064z"/><path fill="#fff" d="M52.716 103v-5.922l.324 1.008-5.256-7.776h1.728l4.176 6.318h-.378l4.158-6.318h1.656l-5.238 7.776.324-1.008V103h-1.494zm9.924.162c-.864 0-1.62-.186-2.268-.558a3.863 3.863 0 0 1-1.476-1.62c-.348-.708-.522-1.542-.522-2.502 0-.972.174-1.806.522-2.502.348-.696.84-1.23 1.476-1.602.648-.384 1.404-.576 2.268-.576.876 0 1.632.192 2.268.576a3.714 3.714 0 0 1 1.494 1.602c.36.696.54 1.53.54 2.502 0 .96-.18 1.794-.54 2.502a3.828 3.828 0 0 1-1.494 1.62c-.636.372-1.392.558-2.268.558zm0-1.188c.864 0 1.548-.294 2.052-.882.504-.6.756-1.47.756-2.61 0-1.152-.258-2.022-.774-2.61-.504-.6-1.182-.9-2.034-.9-.852 0-1.53.3-2.034.9-.504.588-.756 1.458-.756 2.61 0 1.14.252 2.01.756 2.61.504.588 1.182.882 2.034.882zm9.761 1.188c-1.068 0-1.878-.294-2.43-.882-.54-.588-.81-1.488-.81-2.7v-5.616h1.458v5.58c0 .828.168 1.44.504 1.836.336.384.858.576 1.566.576.792 0 1.428-.258 1.908-.774s.72-1.206.72-2.07v-5.148h1.458V103h-1.422v-2.034h.234c-.252.696-.66 1.236-1.224 1.62-.552.384-1.206.576-1.962.576zM84.297 103V89.752h1.458v6.21h-.234c.252-.708.672-1.242 1.26-1.602.6-.372 1.29-.558 2.07-.558 1.08 0 1.884.294 2.412.882.528.576.792 1.452.792 2.628V103h-1.458v-5.598c0-.84-.168-1.452-.504-1.836-.324-.384-.852-.576-1.584-.576-.84 0-1.512.258-2.016.774-.492.516-.738 1.194-.738 2.034V103h-1.458zm13.985.162c-.804 0-1.506-.186-2.106-.558-.6-.384-1.068-.924-1.404-1.62-.324-.696-.486-1.53-.486-2.502 0-.984.162-1.824.486-2.52.336-.696.804-1.23 1.404-1.602.6-.372 1.302-.558 2.106-.558.816 0 1.518.21 2.106.63.6.408.996.966 1.188 1.674h-.216l.198-2.142h1.404l-.108 1.062c-.024.348-.036.69-.036 1.026V103h-1.458v-2.124h.198a2.869 2.869 0 0 1-1.188 1.674c-.6.408-1.296.612-2.088.612zm.288-1.188c.864 0 1.548-.294 2.052-.882.504-.6.756-1.47.756-2.61 0-1.152-.252-2.022-.756-2.61-.504-.6-1.188-.9-2.052-.9-.852 0-1.536.3-2.052.9-.504.588-.756 1.458-.756 2.61 0 1.14.252 2.01.756 2.61.516.588 1.2.882 2.052.882zm9.643 1.026-3.87-9.036h1.584l3.24 7.956h-.486l3.276-7.956h1.512l-3.87 9.036h-1.386zm10.789.162c-1.416 0-2.532-.408-3.348-1.224-.816-.828-1.224-1.974-1.224-3.438 0-.948.18-1.77.54-2.466a3.92 3.92 0 0 1 1.512-1.638c.648-.396 1.392-.594 2.232-.594.828 0 1.524.174 2.088.522.564.348.996.846 1.296 1.494.3.636.45 1.392.45 2.268v.54h-7.002v-.918h6.048l-.306.234c0-.96-.216-1.71-.648-2.25-.432-.54-1.074-.81-1.926-.81-.9 0-1.602.318-2.106.954-.504.624-.756 1.47-.756 2.538v.162c0 1.128.276 1.986.828 2.574.564.576 1.35.864 2.358.864.54 0 1.044-.078 1.512-.234.48-.168.936-.438 1.368-.81l.504 1.026c-.396.384-.9.684-1.512.9-.6.204-1.236.306-1.908.306zm10.471-.162v-6.948c0-.336-.018-.678-.054-1.026-.024-.36-.054-.714-.09-1.062h1.404l.18 1.98h-.216c.24-.684.618-1.212 1.134-1.584.528-.372 1.164-.558 1.908-.558.756 0 1.368.18 1.836.54.48.36.804.918.972 1.674h-.27a3.098 3.098 0 0 1 1.206-1.62c.576-.396 1.248-.594 2.016-.594.996 0 1.746.288 2.25.864.504.564.756 1.458.756 2.682V103h-1.458v-5.562c0-.852-.15-1.47-.45-1.854-.3-.396-.78-.594-1.44-.594-.756 0-1.356.264-1.8.792-.432.516-.648 1.212-.648 2.088V103h-1.458v-5.562c0-.852-.15-1.47-.45-1.854-.3-.396-.78-.594-1.44-.594-.756 0-1.35.264-1.782.792-.432.516-.648 1.212-.648 2.088V103h-1.458zm19.241.162c-.804 0-1.506-.186-2.106-.558-.6-.384-1.068-.924-1.404-1.62-.324-.696-.486-1.53-.486-2.502 0-.984.162-1.824.486-2.52.336-.696.804-1.23 1.404-1.602.6-.372 1.302-.558 2.106-.558.816 0 1.518.21 2.106.63.6.408.996.966 1.188 1.674h-.216l.198-2.142h1.404l-.108 1.062c-.024.348-.036.69-.036 1.026V103h-1.458v-2.124h.198a2.869 2.869 0 0 1-1.188 1.674c-.6.408-1.296.612-2.088.612zm.288-1.188c.864 0 1.548-.294 2.052-.882.504-.6.756-1.47.756-2.61 0-1.152-.252-2.022-.756-2.61-.504-.6-1.188-.9-2.052-.9-.852 0-1.536.3-2.052.9-.504.588-.756 1.458-.756 2.61 0 1.14.252 2.01.756 2.61.516.588 1.2.882 2.052.882zm10.486 1.188c-.792 0-1.488-.186-2.088-.558-.6-.384-1.068-.924-1.404-1.62-.324-.696-.486-1.53-.486-2.502 0-.984.162-1.824.486-2.52.336-.696.804-1.23 1.404-1.602.6-.372 1.296-.558 2.088-.558.816 0 1.518.204 2.106.612.6.408 1.002.96 1.206 1.656h-.216v-6.318h1.458V103h-1.44v-2.16h.198a2.95 2.95 0 0 1-1.188 1.71c-.6.408-1.308.612-2.124.612zm.306-1.188c.852 0 1.536-.294 2.052-.882.516-.6.774-1.47.774-2.61 0-1.152-.258-2.022-.774-2.61-.516-.6-1.2-.9-2.052-.9-.852 0-1.536.3-2.052.9-.504.588-.756 1.458-.756 2.61 0 1.14.252 2.01.756 2.61.516.588 1.2.882 2.052.882zm11.081 1.188c-1.416 0-2.532-.408-3.348-1.224-.816-.828-1.224-1.974-1.224-3.438 0-.948.18-1.77.54-2.466a3.92 3.92 0 0 1 1.512-1.638c.648-.396 1.392-.594 2.232-.594.828 0 1.524.174 2.088.522.564.348.996.846 1.296 1.494.3.636.45 1.392.45 2.268v.54h-7.002v-.918h6.048l-.306.234c0-.96-.216-1.71-.648-2.25-.432-.54-1.074-.81-1.926-.81-.9 0-1.602.318-2.106.954-.504.624-.756 1.47-.756 2.538v.162c0 1.128.276 1.986.828 2.574.564.576 1.35.864 2.358.864.54 0 1.044-.078 1.512-.234.48-.168.936-.438 1.368-.81l.504 1.026c-.396.384-.9.684-1.512.9-.6.204-1.236.306-1.908.306zm14.017 1.908v-2.286l.324.306a8.565 8.565 0 0 1-2.448-.378 5.742 5.742 0 0 1-2.016-1.134l.54-1.188a6.197 6.197 0 0 0 1.818 1.044c.636.228 1.38.342 2.232.342 1.032 0 1.8-.198 2.304-.594.504-.408.756-.93.756-1.566 0-.516-.186-.924-.558-1.224-.36-.312-.96-.558-1.8-.738l-1.8-.378c-1.092-.24-1.902-.63-2.43-1.17-.528-.552-.792-1.278-.792-2.178 0-.696.168-1.314.504-1.854a3.59 3.59 0 0 1 1.44-1.296c.612-.324 1.326-.504 2.142-.54l-.216.252v-2.25h1.224v2.25l-.234-.252a6.077 6.077 0 0 1 1.944.414c.66.252 1.218.63 1.674 1.134l-.504 1.152a4.302 4.302 0 0 0-1.602-1.062c-.588-.228-1.242-.342-1.962-.342-.912 0-1.638.216-2.178.648-.54.432-.81 1.002-.81 1.71 0 .552.168.996.504 1.332.348.336.906.582 1.674.738l1.8.396c1.164.24 2.028.618 2.592 1.134.564.504.846 1.188.846 2.052 0 .684-.174 1.284-.522 1.8-.348.504-.822.906-1.422 1.206-.6.288-1.296.462-2.088.522l.288-.306v2.304h-1.224zm8.111-2.07v-1.278h2.988V91.588h.792l-3.492 2.178v-1.494l3.114-1.962h1.08v11.412h2.808V103h-7.29zm14.141.162c-.552 0-1.092-.06-1.62-.18a6.88 6.88 0 0 1-1.494-.522 5.11 5.11 0 0 1-1.206-.828l.558-1.152a6.604 6.604 0 0 0 1.8 1.044 5.853 5.853 0 0 0 1.962.324c.912 0 1.626-.246 2.142-.738s.774-1.14.774-1.944c0-.828-.246-1.506-.738-2.034-.492-.528-1.176-.792-2.052-.792-.624 0-1.182.126-1.674.378-.492.24-.918.618-1.278 1.134h-1.08V90.31h7.524v1.26h-6.084v5.058h-.396a3.117 3.117 0 0 1 1.332-1.152c.576-.276 1.224-.414 1.944-.414.816 0 1.518.168 2.106.504.6.336 1.062.804 1.386 1.404.324.6.486 1.302.486 2.106 0 .804-.18 1.518-.54 2.142a3.652 3.652 0 0 1-1.512 1.44c-.648.336-1.428.504-2.34.504zm12.107-.162v-2.754h-6.048v-1.08l6.282-8.856h1.224v8.73h1.944v1.206h-1.944V103h-1.458zm0-3.96v-6.966h.396l-5.22 7.344v-.378h4.824zm4.979 3.96v-1.836h1.836V103h-1.836zm8.361.162c-1.44 0-2.544-.558-3.312-1.674-.768-1.116-1.152-2.73-1.152-4.842 0-2.124.384-3.738 1.152-4.842.768-1.104 1.872-1.656 3.312-1.656 1.452 0 2.556.552 3.312 1.656.768 1.104 1.152 2.712 1.152 4.824 0 2.124-.384 3.744-1.152 4.86-.768 1.116-1.872 1.674-3.312 1.674zm0-1.296c1.008 0 1.758-.426 2.25-1.278.492-.852.738-2.172.738-3.96 0-1.8-.246-3.114-.738-3.942-.492-.84-1.242-1.26-2.25-1.26-.996 0-1.746.42-2.25 1.26-.492.84-.738 2.154-.738 3.942 0 1.788.246 3.108.738 3.96.504.852 1.254 1.278 2.25 1.278zm10.793 1.296c-1.44 0-2.544-.558-3.312-1.674-.768-1.116-1.152-2.73-1.152-4.842 0-2.124.384-3.738 1.152-4.842.768-1.104 1.872-1.656 3.312-1.656 1.452 0 2.556.552 3.312 1.656.768 1.104 1.152 2.712 1.152 4.824 0 2.124-.384 3.744-1.152 4.86-.768 1.116-1.872 1.674-3.312 1.674zm0-1.296c1.008 0 1.758-.426 2.25-1.278.492-.852.738-2.172.738-3.96 0-1.8-.246-3.114-.738-3.942-.492-.84-1.242-1.26-2.25-1.26-.996 0-1.746.42-2.25 1.26-.492.84-.738 2.154-.738 3.942 0 1.788.246 3.108.738 3.96.504.852 1.254 1.278 2.25 1.278zm14.713 1.296c-.888 0-1.566-.252-2.034-.756-.468-.516-.702-1.29-.702-2.322v-4.986h-1.764v-1.134h1.764v-2.466l1.458-.414v2.88h2.592v1.134h-2.592v4.824c0 .72.12 1.236.36 1.548.252.3.624.45 1.116.45.228 0 .432-.018.612-.054.18-.048.342-.102.486-.162v1.224a2.507 2.507 0 0 1-.612.162 3.312 3.312 0 0 1-.684.072zm3.089-.162V89.752h1.458v6.21h-.234c.252-.708.672-1.242 1.26-1.602.6-.372 1.29-.558 2.07-.558 1.08 0 1.884.294 2.412.882.528.576.792 1.452.792 2.628V103h-1.458v-5.598c0-.84-.168-1.452-.504-1.836-.324-.384-.852-.576-1.584-.576-.84 0-1.512.258-2.016.774-.492.516-.738 1.194-.738 2.034V103h-1.458zm10.547 0v-9.036h1.458V103h-1.458zm-.18-11.088v-1.638h1.8v1.638h-1.8zm7.475 11.25c-.72 0-1.392-.096-2.016-.288-.624-.204-1.14-.486-1.548-.846l.504-1.026a4.66 4.66 0 0 0 1.44.774 5.37 5.37 0 0 0 1.638.252c.72 0 1.26-.126 1.62-.378.372-.264.558-.624.558-1.08 0-.348-.12-.624-.36-.828-.228-.216-.606-.384-1.134-.504l-1.674-.342c-.768-.168-1.344-.45-1.728-.846-.384-.408-.576-.924-.576-1.548 0-.528.138-.99.414-1.386.276-.408.678-.726 1.206-.954.528-.24 1.146-.36 1.854-.36.66 0 1.266.102 1.818.306.564.192 1.032.474 1.404.846l-.522 1.008a3.44 3.44 0 0 0-1.242-.774c-.456-.18-.93-.27-1.422-.27-.708 0-1.242.144-1.602.432a1.332 1.332 0 0 0-.522 1.098c0 .348.108.636.324.864.228.216.576.378 1.044.486l1.674.342c.816.18 1.422.462 1.818.846.408.372.612.876.612 1.512 0 .54-.15 1.014-.45 1.422-.3.396-.72.702-1.26.918-.528.216-1.152.324-1.872.324zm13.029-.162-3.348-9.036h1.548l2.79 7.956h-.468l2.88-7.956h1.26l2.826 7.956h-.45l2.808-7.956h1.476L300.013 103h-1.404l-2.916-8.082h.72L293.479 103h-1.422zm17.123.162c-1.416 0-2.532-.408-3.348-1.224-.816-.828-1.224-1.974-1.224-3.438 0-.948.18-1.77.54-2.466a3.92 3.92 0 0 1 1.512-1.638c.648-.396 1.392-.594 2.232-.594.828 0 1.524.174 2.088.522.564.348.996.846 1.296 1.494.3.636.45 1.392.45 2.268v.54h-7.002v-.918h6.048l-.306.234c0-.96-.216-1.71-.648-2.25-.432-.54-1.074-.81-1.926-.81-.9 0-1.602.318-2.106.954-.504.624-.756 1.47-.756 2.538v.162c0 1.128.276 1.986.828 2.574.564.576 1.35.864 2.358.864.54 0 1.044-.078 1.512-.234.48-.168.936-.438 1.368-.81l.504 1.026c-.396.384-.9.684-1.512.9-.6.204-1.236.306-1.908.306zm9.791 0c-1.416 0-2.532-.408-3.348-1.224-.816-.828-1.224-1.974-1.224-3.438 0-.948.18-1.77.54-2.466a3.92 3.92 0 0 1 1.512-1.638c.648-.396 1.392-.594 2.232-.594.828 0 1.524.174 2.088.522.564.348.996.846 1.296 1.494.3.636.45 1.392.45 2.268v.54h-7.002v-.918h6.048l-.306.234c0-.96-.216-1.71-.648-2.25-.432-.54-1.074-.81-1.926-.81-.9 0-1.602.318-2.106.954-.504.624-.756 1.47-.756 2.538v.162c0 1.128.276 1.986.828 2.574.564.576 1.35.864 2.358.864.54 0 1.044-.078 1.512-.234.48-.168.936-.438 1.368-.81l.504 1.026c-.396.384-.9.684-1.512.9-.6.204-1.236.306-1.908.306zm5.777-.162V89.752h1.458v8.226h.036l4.194-4.014h1.836l-4.95 4.716.036-.738L332.74 103h-1.89l-4.608-4.248h-.036V103h-1.458zM406 96.96h28v-28h-28v28z"/><circle cx="30" cy="170" r="6" fill="#F3F4FF"/><circle cx="30" cy="170" r="3" fill="#594FEE"/><path fill="#020617" d="M48.64 176.6a.338.338 0 0 1-.272-.112.345.345 0 0 1-.096-.256v-1.12c-.779-.064-1.435-.24-1.968-.528-.533-.299-.939-.656-1.216-1.072a2.571 2.571 0 0 1-.448-1.328c0-.085.032-.16.096-.224a.351.351 0 0 1 .256-.112h.816c.128 0 .224.032.288.096a.476.476 0 0 1 .128.224c.064.256.197.512.4.768.203.245.49.453.864.624.384.16.875.24 1.472.24.917 0 1.59-.16 2.016-.48.437-.331.656-.768.656-1.312 0-.373-.117-.672-.352-.896-.224-.235-.57-.443-1.04-.624a21.963 21.963 0 0 0-1.824-.592c-.779-.224-1.424-.469-1.936-.736s-.896-.597-1.152-.992c-.245-.395-.368-.896-.368-1.504 0-.779.288-1.445.864-2 .576-.565 1.392-.896 2.448-.992v-1.104c0-.107.032-.192.096-.256a.338.338 0 0 1 .272-.112h.608a.32.32 0 0 1 .256.112.32.32 0 0 1 .112.256v1.12c.715.085 1.312.283 1.792.592s.843.667 1.088 1.072c.245.405.373.8.384 1.184a.384.384 0 0 1-.08.224c-.053.064-.139.096-.256.096h-.848a.535.535 0 0 1-.24-.064c-.075-.043-.133-.123-.176-.24-.064-.437-.31-.805-.736-1.104-.427-.299-.981-.448-1.664-.448-.693 0-1.259.133-1.696.4-.427.267-.64.683-.64 1.248 0 .363.101.667.304.912.203.235.523.443.96.624.437.181 1.008.373 1.712.576.853.235 1.552.485 2.096.752.544.256.944.581 1.2.976.267.384.4.88.4 1.488s-.15 1.136-.448 1.584c-.288.448-.704.805-1.248 1.072-.533.267-1.168.432-1.904.496v1.104a.32.32 0 0 1-.112.256.32.32 0 0 1-.256.112h-.608zm11.667-1.6a.404.404 0 0 1-.272-.096.404.404 0 0 1-.096-.272v-2.304h-5.184a.404.404 0 0 1-.272-.096.404.404 0 0 1-.096-.272v-.64a.83.83 0 0 1 .032-.192c.032-.096.08-.192.144-.288l4.8-6.768c.128-.181.325-.272.592-.272h1.152a.32.32 0 0 1 .256.112.32.32 0 0 1 .112.256v6.768h1.44c.117 0 .208.037.272.112a.32.32 0 0 1 .112.256v.656a.37.37 0 0 1-.112.272.346.346 0 0 1-.256.096h-1.456v2.304a.37.37 0 0 1-.112.272.346.346 0 0 1-.256.096h-.8zm-4.208-4.032h3.856v-5.488l-3.856 5.488zM68.9 175.16c-.736 0-1.36-.112-1.872-.336a3.357 3.357 0 0 1-1.232-.96 3.985 3.985 0 0 1-.704-1.392 7.55 7.55 0 0 1-.24-1.664l-.032-.912v-.96c.01-.331.022-.645.032-.944.01-.587.09-1.141.24-1.664.16-.533.395-.997.704-1.392.32-.405.736-.72 1.248-.944.512-.235 1.13-.352 1.856-.352.736 0 1.355.117 1.856.352.512.224.928.539 1.248.944.32.395.555.859.704 1.392a6.03 6.03 0 0 1 .256 1.664c.01.299.016.613.016.944.01.32.01.64 0 .96 0 .32-.005.624-.016.912a6.03 6.03 0 0 1-.256 1.664c-.15.523-.384.987-.704 1.392a3.19 3.19 0 0 1-1.232.96c-.501.224-1.125.336-1.872.336zm0-1.36c.832 0 1.445-.272 1.84-.816.406-.555.614-1.307.624-2.256.021-.309.032-.608.032-.896v-.88c0-.299-.01-.592-.032-.88-.01-.928-.219-1.669-.624-2.224-.394-.565-1.008-.848-1.84-.848-.821 0-1.434.283-1.84.848-.395.555-.603 1.296-.624 2.224 0 .288-.005.581-.016.88v.88c.01.288.016.587.016.896.021.949.235 1.701.64 2.256.406.544 1.014.816 1.824.816zm10.172 1.36a6.232 6.232 0 0 1-1.712-.224 4.204 4.204 0 0 1-1.328-.672 3.18 3.18 0 0 1-.848-1.072 3.172 3.172 0 0 1-.304-1.408c0-.651.155-1.211.464-1.68.32-.469.742-.827 1.264-1.072a2.712 2.712 0 0 1-.976-.96c-.234-.395-.352-.864-.352-1.408 0-.64.155-1.179.464-1.616.32-.448.763-.795 1.328-1.04.576-.245 1.243-.368 2-.368.747 0 1.403.123 1.968.368.576.235 1.019.576 1.328 1.024.32.448.48.987.48 1.616 0 .544-.117 1.019-.352 1.424a2.753 2.753 0 0 1-.96.96 2.98 2.98 0 0 1 1.248 1.072c.32.469.48 1.029.48 1.68 0 .693-.176 1.296-.528 1.808-.352.501-.842.891-1.472 1.168-.629.267-1.36.4-2.192.4zm0-1.28c.491 0 .934-.085 1.328-.256a2.31 2.31 0 0 0 .944-.72 1.84 1.84 0 0 0 .352-1.12c0-.437-.117-.805-.352-1.104a2.189 2.189 0 0 0-.944-.704 3.308 3.308 0 0 0-1.328-.256c-.49 0-.938.085-1.344.256-.394.16-.709.395-.944.704-.234.299-.352.667-.352 1.104 0 .427.118.8.352 1.12.235.309.55.549.944.72.406.171.854.256 1.344.256zm0-5.424a2.77 2.77 0 0 0 1.12-.224c.352-.149.63-.352.832-.608.214-.256.32-.565.32-.928 0-.363-.101-.677-.304-.944a1.776 1.776 0 0 0-.816-.608 2.852 2.852 0 0 0-1.152-.224 2.97 2.97 0 0 0-1.168.224 1.894 1.894 0 0 0-.816.608 1.515 1.515 0 0 0-.304.944c0 .373.102.693.304.96.203.256.475.453.816.592.352.139.742.208 1.168.208zM85.44 175a.404.404 0 0 1-.272-.096.404.404 0 0 1-.096-.272v-1.152c0-.107.032-.192.096-.256a.369.369 0 0 1 .272-.112h1.152a.32.32 0 0 1 .256.112.32.32 0 0 1 .112.256v1.152a.37.37 0 0 1-.112.272.346.346 0 0 1-.256.096H85.44zm7.36.16c-.673 0-1.26-.08-1.76-.24a4.07 4.07 0 0 1-1.265-.672 3.103 3.103 0 0 1-.784-.912 2.366 2.366 0 0 1-.272-1.024c0-.096.032-.171.096-.224a.364.364 0 0 1 .24-.08h.784c.096 0 .182.021.256.064.075.043.139.133.192.272.107.384.288.683.544.896.267.213.57.363.912.448.352.075.704.112 1.056.112.736 0 1.334-.176 1.792-.528.459-.352.688-.869.688-1.552 0-.693-.208-1.189-.624-1.488-.416-.299-.992-.448-1.728-.448h-1.52a.404.404 0 0 1-.272-.096.368.368 0 0 1-.096-.272v-.432c0-.096.016-.176.048-.24.043-.075.086-.139.128-.192l3.104-3.392H89.6a.404.404 0 0 1-.272-.096.368.368 0 0 1-.096-.272v-.608c0-.117.032-.208.096-.272a.369.369 0 0 1 .272-.112h6.384c.118 0 .208.037.272.112a.34.34 0 0 1 .112.272v.576a.367.367 0 0 1-.064.208c-.032.053-.07.107-.112.16l-3.088 3.44.256.016c.704.021 1.318.149 1.84.384.534.235.944.587 1.232 1.056.299.459.448 1.04.448 1.744 0 .715-.176 1.328-.528 1.84-.352.501-.837.885-1.456 1.152-.618.267-1.317.4-2.096.4zm9.769 0c-.886 0-1.638-.176-2.256-.528a3.84 3.84 0 0 1-1.424-1.408 3.913 3.913 0 0 1-.48-1.904c0-.32.037-.624.112-.912.085-.299.186-.576.304-.832a10.4 10.4 0 0 1 .368-.704c.128-.213.24-.384.336-.512l3.04-4.24.192-.192c.074-.085.186-.128.336-.128h.848a.26.26 0 0 1 .224.112.326.326 0 0 1 .096.24.56.56 0 0 1-.016.128.206.206 0 0 1-.048.08l-2.336 3.264a1.73 1.73 0 0 1 .432-.08c.17-.021.33-.032.48-.032a4.28 4.28 0 0 1 1.6.32c.48.203.89.48 1.232.832.352.341.618.741.8 1.2.181.448.272.928.272 1.44 0 .672-.16 1.301-.48 1.888-.32.587-.79 1.061-1.408 1.424-.608.363-1.35.544-2.224.544zm-.016-1.36c.448 0 .864-.096 1.248-.288.384-.192.693-.469.928-.832.245-.373.368-.827.368-1.36 0-.544-.118-.997-.352-1.36a2.165 2.165 0 0 0-.944-.832 2.752 2.752 0 0 0-1.248-.288c-.448 0-.864.096-1.248.288a2.28 2.28 0 0 0-.944.832c-.235.363-.352.816-.352 1.36 0 .533.117.987.352 1.36.245.363.56.64.944.832.384.192.8.288 1.248.288z"/><path fill="#475569" d="M45.32 194c-.088 0-.156-.024-.204-.072a.303.303 0 0 1-.072-.204v-7.848a.26.26 0 0 1 .072-.192.254.254 0 0 1 .204-.084h.636a.24.24 0 0 1 .192.084.26.26 0 0 1 .072.192v7.08h3.996c.088 0 .156.028.204.084.048.048.072.116.072.204v.48c0 .08-.024.148-.072.204-.048.048-.116.072-.204.072H45.32zm8.07.12c-.4 0-.764-.08-1.092-.24a2.112 2.112 0 0 1-.792-.648c-.2-.272-.3-.58-.3-.924 0-.552.224-.992.672-1.32.448-.328 1.032-.544 1.752-.648l1.788-.252v-.348c0-.384-.112-.684-.336-.9-.216-.216-.572-.324-1.068-.324-.36 0-.652.072-.876.216a1.17 1.17 0 0 0-.456.552c-.048.12-.132.18-.252.18h-.54c-.088 0-.156-.024-.204-.072a.322.322 0 0 1-.06-.192c0-.12.044-.268.132-.444.096-.176.24-.348.432-.516.192-.168.436-.308.732-.42.304-.12.672-.18 1.104-.18.48 0 .884.064 1.212.192.328.12.584.284.768.492.192.208.328.444.408.708.088.264.132.532.132.804v3.888c0 .08-.028.148-.084.204a.26.26 0 0 1-.192.072h-.552c-.088 0-.156-.024-.204-.072a.303.303 0 0 1-.072-.204v-.516a2.345 2.345 0 0 1-.42.432 2.434 2.434 0 0 1-.66.348 3.102 3.102 0 0 1-.972.132zm.252-.9c.328 0 .628-.068.9-.204.272-.144.484-.364.636-.66.16-.296.24-.668.24-1.116v-.336l-1.392.204c-.568.08-.996.216-1.284.408-.288.184-.432.42-.432.708 0 .224.064.412.192.564.136.144.304.252.504.324.208.072.42.108.636.108zm6.789.9c-.448 0-.832-.056-1.152-.168a2.637 2.637 0 0 1-.78-.408 2.1 2.1 0 0 1-.456-.48c-.096-.16-.148-.288-.156-.384-.008-.088.02-.156.084-.204a.32.32 0 0 1 .192-.072h.528c.048 0 .084.008.108.024.032.008.072.04.12.096.104.112.22.224.348.336.128.112.284.204.468.276.192.072.428.108.708.108.408 0 .744-.076 1.008-.228a.767.767 0 0 0 .396-.696c0-.2-.056-.36-.168-.48-.104-.12-.296-.228-.576-.324a9.77 9.77 0 0 0-1.128-.3c-.48-.112-.86-.248-1.14-.408-.28-.168-.48-.364-.6-.588a1.672 1.672 0 0 1-.18-.78c0-.296.088-.58.264-.852.176-.28.432-.508.768-.684.344-.176.772-.264 1.284-.264.416 0 .772.052 1.068.156.296.104.54.236.732.396.192.152.336.304.432.456.096.152.148.28.156.384a.241.241 0 0 1-.072.204.287.287 0 0 1-.192.072h-.504a.275.275 0 0 1-.144-.036.901.901 0 0 1-.096-.084 2.556 2.556 0 0 0-.288-.312 1.13 1.13 0 0 0-.42-.252c-.168-.072-.392-.108-.672-.108-.4 0-.7.084-.9.252-.2.168-.3.38-.3.636 0 .152.044.288.132.408.088.12.256.228.504.324s.616.2 1.104.312c.528.104.944.244 1.248.42.304.176.52.38.648.612.128.232.192.5.192.804 0 .336-.1.644-.3.924-.192.28-.48.504-.864.672-.376.16-.844.24-1.404.24zm6.381-.12c-.448 0-.812-.084-1.092-.252a1.527 1.527 0 0 1-.612-.732 3.027 3.027 0 0 1-.192-1.128v-3.168h-.936a.303.303 0 0 1-.204-.072.303.303 0 0 1-.072-.204v-.408a.26.26 0 0 1 .072-.192.278.278 0 0 1 .204-.084h.936v-2.004a.26.26 0 0 1 .072-.192.278.278 0 0 1 .204-.084h.564a.24.24 0 0 1 .192.084.24.24 0 0 1 .084.192v2.004h1.488a.24.24 0 0 1 .192.084.24.24 0 0 1 .084.192v.408c0 .08-.028.148-.084.204a.26.26 0 0 1-.192.072h-1.488v3.084c0 .376.064.672.192.888.128.216.356.324.684.324h.732a.24.24 0 0 1 .192.084.24.24 0 0 1 .084.192v.432c0 .08-.028.148-.084.204a.26.26 0 0 1-.192.072h-.828zm5.47 0a.303.303 0 0 1-.205-.072.303.303 0 0 1-.072-.204v-5.688a.26.26 0 0 1 .072-.192.278.278 0 0 1 .204-.084h.54a.24.24 0 0 1 .192.084.24.24 0 0 1 .084.192v.42c.184-.248.416-.444.696-.588.28-.152.616-.228 1.008-.228.904-.008 1.544.36 1.92 1.104.184-.336.452-.604.804-.804.352-.2.752-.3 1.2-.3.416 0 .792.096 1.128.288.344.192.612.484.804.876.2.384.3.868.3 1.452v3.468c0 .08-.028.148-.084.204a.26.26 0 0 1-.192.072h-.564a.303.303 0 0 1-.204-.072.303.303 0 0 1-.072-.204v-3.36c0-.448-.064-.8-.192-1.056s-.3-.436-.516-.54a1.61 1.61 0 0 0-.708-.156c-.208 0-.42.052-.636.156-.216.104-.396.284-.54.54-.136.256-.204.608-.204 1.056v3.36c0 .08-.028.148-.084.204a.26.26 0 0 1-.192.072h-.564a.303.303 0 0 1-.204-.072.303.303 0 0 1-.072-.204v-3.36c0-.448-.068-.8-.204-1.056-.136-.256-.312-.436-.528-.54a1.557 1.557 0 0 0-.684-.156c-.208 0-.42.052-.636.156-.216.104-.396.284-.54.54-.136.256-.204.604-.204 1.044v3.372c0 .08-.028.148-.084.204a.26.26 0 0 1-.192.072h-.576zm12.943.12c-.608 0-1.116-.116-1.524-.348a2.35 2.35 0 0 1-.936-.96 3.367 3.367 0 0 1-.36-1.416 9.083 9.083 0 0 1-.012-.516 8.7 8.7 0 0 1 .012-.516c.024-.536.144-1.008.36-1.416.224-.408.54-.728.948-.96.408-.232.912-.348 1.512-.348s1.104.116 1.512.348c.408.232.72.552.936.96.224.408.348.88.372 1.416.008.128.012.3.012.516 0 .208-.004.38-.012.516-.024.528-.144 1-.36 1.416a2.35 2.35 0 0 1-.936.96c-.408.232-.916.348-1.524.348zm0-.924c.496 0 .892-.156 1.188-.468.296-.32.456-.784.48-1.392.008-.12.012-.272.012-.456s-.004-.336-.012-.456c-.024-.608-.184-1.068-.48-1.38-.296-.32-.692-.48-1.188-.48s-.896.16-1.2.48c-.296.312-.452.772-.468 1.38-.008.12-.012.272-.012.456s.004.336.012.456c.016.608.172 1.072.468 1.392.304.312.704.468 1.2.468zm4.61.804a.303.303 0 0 1-.203-.072.303.303 0 0 1-.072-.204v-5.688a.26.26 0 0 1 .072-.192.278.278 0 0 1 .204-.084h.564a.24.24 0 0 1 .192.084.24.24 0 0 1 .084.192v.528c.208-.272.468-.492.78-.66.32-.176.728-.264 1.224-.264.52 0 .96.116 1.32.348.368.224.644.54.828.948.184.4.276.868.276 1.404v3.384c0 .08-.024.148-.072.204a.26.26 0 0 1-.192.072h-.6a.303.303 0 0 1-.204-.072.303.303 0 0 1-.072-.204V190.4c0-.56-.136-.996-.408-1.308-.272-.32-.672-.48-1.2-.48-.496 0-.896.16-1.2.48-.296.312-.444.748-.444 1.308v3.324c0 .08-.028.148-.084.204a.26.26 0 0 1-.192.072h-.6zm9.356 0c-.448 0-.812-.084-1.092-.252a1.527 1.527 0 0 1-.612-.732 3.027 3.027 0 0 1-.192-1.128v-3.168h-.936a.303.303 0 0 1-.204-.072.303.303 0 0 1-.072-.204v-.408a.26.26 0 0 1 .072-.192.278.278 0 0 1 .204-.084h.936v-2.004a.26.26 0 0 1 .072-.192.278.278 0 0 1 .204-.084h.564a.24.24 0 0 1 .192.084.24.24 0 0 1 .084.192v2.004H99.9a.24.24 0 0 1 .192.084.24.24 0 0 1 .084.192v.408c0 .08-.028.148-.084.204a.259.259 0 0 1-.192.072h-1.488v3.084c0 .376.064.672.192.888.128.216.356.324.684.324h.732a.24.24 0 0 1 .192.084.24.24 0 0 1 .084.192v.432c0 .08-.028.148-.084.204a.26.26 0 0 1-.192.072h-.828zm2.54 0a.303.303 0 0 1-.204-.072.303.303 0 0 1-.072-.204v-7.968a.26.26 0 0 1 .072-.192.278.278 0 0 1 .204-.084h.6c.088 0 .156.028.204.084a.26.26 0 0 1 .072.192v2.796c.216-.272.48-.492.792-.66.312-.168.708-.252 1.188-.252.52 0 .96.116 1.32.348.368.224.644.54.828.948.192.4.288.868.288 1.404v3.384c0 .08-.024.148-.072.204-.048.048-.116.072-.204.072h-.6a.303.303 0 0 1-.204-.072.303.303 0 0 1-.072-.204V190.4c0-.56-.136-.996-.408-1.308-.272-.32-.672-.48-1.2-.48-.496 0-.896.16-1.2.48-.304.312-.456.748-.456 1.308v3.324c0 .08-.024.148-.072.204-.048.048-.116.072-.204.072h-.6z"/><circle cx="210" cy="170" r="6" fill="#F3F4FF"/><circle cx="210" cy="170" r="3" fill="#594FEE"/><path fill="#020617" d="M228.64 176.6a.338.338 0 0 1-.272-.112.345.345 0 0 1-.096-.256v-1.12c-.779-.064-1.435-.24-1.968-.528-.533-.299-.939-.656-1.216-1.072a2.571 2.571 0 0 1-.448-1.328c0-.085.032-.16.096-.224a.352.352 0 0 1 .256-.112h.816c.128 0 .224.032.288.096a.474.474 0 0 1 .128.224c.064.256.197.512.4.768.203.245.491.453.864.624.384.16.875.24 1.472.24.917 0 1.589-.16 2.016-.48.437-.331.656-.768.656-1.312 0-.373-.117-.672-.352-.896-.224-.235-.571-.443-1.04-.624a21.889 21.889 0 0 0-1.824-.592c-.779-.224-1.424-.469-1.936-.736s-.896-.597-1.152-.992c-.245-.395-.368-.896-.368-1.504 0-.779.288-1.445.864-2 .576-.565 1.392-.896 2.448-.992v-1.104c0-.107.032-.192.096-.256a.338.338 0 0 1 .272-.112h.608c.107 0 .192.037.256.112a.319.319 0 0 1 .112.256v1.12c.715.085 1.312.283 1.792.592s.843.667 1.088 1.072c.245.405.373.8.384 1.184a.386.386 0 0 1-.08.224c-.053.064-.139.096-.256.096h-.848a.533.533 0 0 1-.24-.064c-.075-.043-.133-.123-.176-.24-.064-.437-.309-.805-.736-1.104-.427-.299-.981-.448-1.664-.448-.693 0-1.259.133-1.696.4-.427.267-.64.683-.64 1.248 0 .363.101.667.304.912.203.235.523.443.96.624.437.181 1.008.373 1.712.576.853.235 1.552.485 2.096.752.544.256.944.581 1.2.976.267.384.4.88.4 1.488s-.149 1.136-.448 1.584c-.288.448-.704.805-1.248 1.072-.533.267-1.168.432-1.904.496v1.104a.319.319 0 0 1-.112.256.319.319 0 0 1-.256.112h-.608zm9.667-1.6a.402.402 0 0 1-.272-.096.404.404 0 0 1-.096-.272v-8.96l-2.656 2.048a.372.372 0 0 1-.272.08.341.341 0 0 1-.24-.144l-.416-.528a.425.425 0 0 1-.08-.288.4.4 0 0 1 .16-.24l3.488-2.688a.518.518 0 0 1 .208-.096c.064-.011.133-.016.208-.016h.816a.32.32 0 0 1 .256.112.345.345 0 0 1 .096.256v10.464a.404.404 0 0 1-.096.272.347.347 0 0 1-.256.096h-.848zm3.499 1.2a.26.26 0 0 1-.208-.096.358.358 0 0 1-.048-.24l.368-2.288a.729.729 0 0 1 .128-.32.383.383 0 0 1 .32-.144h1.072c.075 0 .134.027.176.08.054.053.08.117.08.192a.564.564 0 0 1-.064.256l-.832 2.192a.633.633 0 0 1-.176.256c-.064.075-.16.112-.288.112h-.528zm7.75-1.04c-.736 0-1.36-.112-1.872-.336a3.36 3.36 0 0 1-1.232-.96 3.995 3.995 0 0 1-.704-1.392 7.621 7.621 0 0 1-.24-1.664l-.032-.912v-.96l.032-.944a6.49 6.49 0 0 1 .24-1.664c.16-.533.395-.997.704-1.392.32-.405.736-.72 1.248-.944.512-.235 1.131-.352 1.856-.352.736 0 1.355.117 1.856.352.512.224.928.539 1.248.944.32.395.555.859.704 1.392.16.523.246 1.077.256 1.664.011.299.016.613.016.944.011.32.011.64 0 .96 0 .32-.005.624-.016.912a6.008 6.008 0 0 1-.256 1.664 3.978 3.978 0 0 1-.704 1.392c-.309.405-.72.725-1.232.96-.501.224-1.125.336-1.872.336zm0-1.36c.832 0 1.446-.272 1.84-.816.406-.555.614-1.307.624-2.256.022-.309.032-.608.032-.896v-.88c0-.299-.01-.592-.032-.88-.01-.928-.218-1.669-.624-2.224-.394-.565-1.008-.848-1.84-.848-.821 0-1.434.283-1.84.848-.394.555-.602 1.296-.624 2.224 0 .288-.005.581-.016.88v.88c.011.288.016.587.016.896.022.949.235 1.701.64 2.256.406.544 1.014.816 1.824.816zm6.237 1.2a.402.402 0 0 1-.272-.096.404.404 0 0 1-.096-.272v-.512c0-.096.026-.203.08-.32.053-.117.16-.245.32-.384l3.392-3.392c.544-.459.97-.848 1.28-1.168.32-.331.544-.645.672-.944.138-.299.208-.608.208-.928 0-.608-.171-1.088-.512-1.44-.342-.363-.848-.544-1.52-.544-.427 0-.795.091-1.104.272-.31.171-.555.411-.736.72-.171.299-.283.64-.336 1.024-.022.139-.08.235-.176.288a.465.465 0 0 1-.24.08h-.832a.364.364 0 0 1-.24-.08.308.308 0 0 1-.096-.224c.01-.405.096-.811.256-1.216a3.42 3.42 0 0 1 .704-1.12 3.66 3.66 0 0 1 1.168-.8c.469-.213 1.013-.32 1.632-.32.842 0 1.53.155 2.064.464.544.299.944.699 1.2 1.2a3.57 3.57 0 0 1 .384 1.648c0 .469-.08.901-.24 1.296-.16.384-.395.763-.704 1.136a9.227 9.227 0 0 1-1.12 1.12l-3.072 3.12h4.992c.117 0 .208.032.272.096a.341.341 0 0 1 .112.272v.656a.373.373 0 0 1-.112.272.368.368 0 0 1-.272.096h-7.056zm14.498 0a.404.404 0 0 1-.272-.096.404.404 0 0 1-.096-.272v-2.304h-5.184a.404.404 0 0 1-.272-.096.404.404 0 0 1-.096-.272v-.64a.89.89 0 0 1 .032-.192c.032-.096.08-.192.144-.288l4.8-6.768c.128-.181.325-.272.592-.272h1.152c.107 0 .192.037.256.112a.319.319 0 0 1 .112.256v6.768h1.44c.117 0 .208.037.272.112a.319.319 0 0 1 .112.256v.656a.369.369 0 0 1-.112.272.345.345 0 0 1-.256.096h-1.456v2.304a.369.369 0 0 1-.112.272.345.345 0 0 1-.256.096h-.8zm-4.208-4.032h3.856v-5.488l-3.856 5.488z"/><path fill="#475569" d="M227.156 194a.303.303 0 0 1-.204-.072.303.303 0 0 1-.072-.204v-7.056h-2.304a.303.303 0 0 1-.204-.072.303.303 0 0 1-.072-.204v-.504c0-.088.024-.156.072-.204a.278.278 0 0 1 .204-.084h5.784c.088 0 .156.028.204.084a.254.254 0 0 1 .084.204v.504c0 .08-.028.148-.084.204-.048.048-.116.072-.204.072h-2.292v7.056c0 .08-.028.148-.084.204-.048.048-.116.072-.204.072h-.624zm4.723 0a.303.303 0 0 1-.204-.072.303.303 0 0 1-.072-.204v-7.968a.26.26 0 0 1 .072-.192.278.278 0 0 1 .204-.084h.6c.088 0 .156.028.204.084a.26.26 0 0 1 .072.192v2.796c.216-.272.48-.492.792-.66.312-.168.708-.252 1.188-.252.52 0 .96.116 1.32.348.368.224.644.54.828.948.192.4.288.868.288 1.404v3.384c0 .08-.024.148-.072.204-.048.048-.116.072-.204.072h-.6a.303.303 0 0 1-.204-.072.303.303 0 0 1-.072-.204V190.4c0-.56-.136-.996-.408-1.308-.272-.32-.672-.48-1.2-.48-.496 0-.896.16-1.2.48-.304.312-.456.748-.456 1.308v3.324c0 .08-.024.148-.072.204-.048.048-.116.072-.204.072h-.6zm7.301 0a.303.303 0 0 1-.204-.072.303.303 0 0 1-.072-.204v-5.688a.26.26 0 0 1 .072-.192.278.278 0 0 1 .204-.084h.576a.24.24 0 0 1 .192.084.26.26 0 0 1 .072.192v5.688c0 .08-.024.148-.072.204a.26.26 0 0 1-.192.072h-.576zm-.096-7.404a.303.303 0 0 1-.204-.072.303.303 0 0 1-.072-.204v-.648a.26.26 0 0 1 .072-.192.278.278 0 0 1 .204-.084h.756a.24.24 0 0 1 .192.084.24.24 0 0 1 .084.192v.648c0 .08-.028.148-.084.204a.26.26 0 0 1-.192.072h-.756zm4.956 7.524c-.448 0-.832-.056-1.152-.168a2.637 2.637 0 0 1-.78-.408 2.1 2.1 0 0 1-.456-.48c-.096-.16-.148-.288-.156-.384-.008-.088.02-.156.084-.204a.32.32 0 0 1 .192-.072h.528c.048 0 .084.008.108.024.032.008.072.04.12.096.104.112.22.224.348.336.128.112.284.204.468.276.192.072.428.108.708.108.408 0 .744-.076 1.008-.228a.767.767 0 0 0 .396-.696c0-.2-.056-.36-.168-.48-.104-.12-.296-.228-.576-.324a9.77 9.77 0 0 0-1.128-.3c-.48-.112-.86-.248-1.14-.408-.28-.168-.48-.364-.6-.588a1.672 1.672 0 0 1-.18-.78c0-.296.088-.58.264-.852.176-.28.432-.508.768-.684.344-.176.772-.264 1.284-.264.416 0 .772.052 1.068.156.296.104.54.236.732.396.192.152.336.304.432.456.096.152.148.28.156.384a.241.241 0 0 1-.072.204.287.287 0 0 1-.192.072h-.504a.275.275 0 0 1-.144-.036.901.901 0 0 1-.096-.084 2.556 2.556 0 0 0-.288-.312 1.13 1.13 0 0 0-.42-.252c-.168-.072-.392-.108-.672-.108-.4 0-.7.084-.9.252-.2.168-.3.38-.3.636 0 .152.044.288.132.408.088.12.256.228.504.324s.616.2 1.104.312c.528.104.944.244 1.248.42.304.176.52.38.648.612.128.232.192.5.192.804 0 .336-.1.644-.3.924-.192.28-.48.504-.864.672-.376.16-.844.24-1.404.24zm8.274-.12a.358.358 0 0 1-.24-.072.698.698 0 0 1-.144-.228l-1.704-5.568a.321.321 0 0 1-.024-.12c0-.072.024-.132.072-.18a.272.272 0 0 1 .18-.072h.528c.088 0 .156.024.204.072.048.048.08.092.096.132l1.332 4.524 1.428-4.476a.453.453 0 0 1 .096-.168c.056-.056.136-.084.24-.084h.408c.104 0 .184.028.24.084a.305.305 0 0 1 .096.168l1.428 4.476 1.332-4.524a.278.278 0 0 1 .084-.132c.048-.048.116-.072.204-.072h.528a.244.244 0 0 1 .252.252c0 .04-.008.08-.024.12l-1.704 5.568a.433.433 0 0 1-.132.228c-.056.048-.14.072-.252.072h-.468a.465.465 0 0 1-.264-.072.433.433 0 0 1-.132-.228l-1.392-4.296-1.392 4.296a.509.509 0 0 1-.144.228.431.431 0 0 1-.264.072h-.468zm10.285.12c-.824 0-1.48-.252-1.968-.756-.488-.512-.756-1.208-.804-2.088a5.34 5.34 0 0 1-.012-.396c0-.168.004-.304.012-.408.032-.568.164-1.064.396-1.488.232-.432.548-.764.948-.996.408-.232.884-.348 1.428-.348.608 0 1.116.128 1.524.384.416.256.732.62.948 1.092.216.472.324 1.024.324 1.656v.204a.254.254 0 0 1-.084.204.26.26 0 0 1-.192.072h-4.152v.108c.016.328.088.636.216.924.128.28.312.508.552.684.24.176.528.264.864.264.288 0 .528-.044.72-.132a1.96 1.96 0 0 0 .468-.288c.12-.112.2-.196.24-.252.072-.104.128-.164.168-.18a.388.388 0 0 1 .192-.036h.576a.26.26 0 0 1 .192.072c.056.04.08.1.072.18-.008.12-.072.268-.192.444-.12.168-.292.336-.516.504a3.006 3.006 0 0 1-.816.42c-.32.104-.688.156-1.104.156zm-1.632-3.696h3.288v-.036c0-.36-.068-.68-.204-.96a1.545 1.545 0 0 0-1.452-.912c-.344 0-.64.084-.888.252-.24.16-.424.38-.552.66-.128.28-.192.6-.192.96v.036zm8.346 3.696c-.824 0-1.48-.252-1.968-.756-.488-.512-.756-1.208-.804-2.088a5.34 5.34 0 0 1-.012-.396c0-.168.004-.304.012-.408.032-.568.164-1.064.396-1.488.232-.432.548-.764.948-.996.408-.232.884-.348 1.428-.348.608 0 1.116.128 1.524.384.416.256.732.62.948 1.092.216.472.324 1.024.324 1.656v.204a.254.254 0 0 1-.084.204.26.26 0 0 1-.192.072h-4.152v.108c.016.328.088.636.216.924.128.28.312.508.552.684.24.176.528.264.864.264.288 0 .528-.044.72-.132a1.96 1.96 0 0 0 .468-.288c.12-.112.2-.196.24-.252.072-.104.128-.164.168-.18a.388.388 0 0 1 .192-.036h.576a.26.26 0 0 1 .192.072c.056.04.08.1.072.18-.008.12-.072.268-.192.444-.12.168-.292.336-.516.504a3.006 3.006 0 0 1-.816.42c-.32.104-.688.156-1.104.156zm-1.632-3.696h3.288v-.036c0-.36-.068-.68-.204-.96a1.545 1.545 0 0 0-1.452-.912c-.344 0-.64.084-.888.252-.24.16-.424.38-.552.66-.128.28-.192.6-.192.96v.036zm6.151 3.576a.303.303 0 0 1-.204-.072.303.303 0 0 1-.072-.204v-7.968a.26.26 0 0 1 .072-.192.278.278 0 0 1 .204-.084h.564a.24.24 0 0 1 .192.084.24.24 0 0 1 .084.192v4.176l2.364-1.968c.096-.08.168-.132.216-.156a.553.553 0 0 1 .264-.048h.636a.244.244 0 0 1 .252.252.215.215 0 0 1-.036.108.293.293 0 0 1-.108.12l-2.772 2.304 3.072 2.988c.096.08.144.152.144.216a.244.244 0 0 1-.252.252h-.624a.715.715 0 0 1-.264-.036 1.341 1.341 0 0 1-.216-.168l-2.676-2.556v2.484c0 .08-.028.148-.084.204a.26.26 0 0 1-.192.072h-.564z"/><circle cx="381" cy="170" r="6" fill="#F3F4FF"/><circle cx="381" cy="170" r="3" fill="#594FEE"/><path fill="#020617" d="M399.64 176.6a.338.338 0 0 1-.272-.112.345.345 0 0 1-.096-.256v-1.12c-.779-.064-1.435-.24-1.968-.528-.533-.299-.939-.656-1.216-1.072a2.571 2.571 0 0 1-.448-1.328c0-.085.032-.16.096-.224a.352.352 0 0 1 .256-.112h.816c.128 0 .224.032.288.096a.474.474 0 0 1 .128.224c.064.256.197.512.4.768.203.245.491.453.864.624.384.16.875.24 1.472.24.917 0 1.589-.16 2.016-.48.437-.331.656-.768.656-1.312 0-.373-.117-.672-.352-.896-.224-.235-.571-.443-1.04-.624a21.889 21.889 0 0 0-1.824-.592c-.779-.224-1.424-.469-1.936-.736s-.896-.597-1.152-.992c-.245-.395-.368-.896-.368-1.504 0-.779.288-1.445.864-2 .576-.565 1.392-.896 2.448-.992v-1.104c0-.107.032-.192.096-.256a.338.338 0 0 1 .272-.112h.608c.107 0 .192.037.256.112a.319.319 0 0 1 .112.256v1.12c.715.085 1.312.283 1.792.592s.843.667 1.088 1.072c.245.405.373.8.384 1.184a.386.386 0 0 1-.08.224c-.053.064-.139.096-.256.096h-.848a.533.533 0 0 1-.24-.064c-.075-.043-.133-.123-.176-.24-.064-.437-.309-.805-.736-1.104-.427-.299-.981-.448-1.664-.448-.693 0-1.259.133-1.696.4-.427.267-.64.683-.64 1.248 0 .363.101.667.304.912.203.235.523.443.96.624.437.181 1.008.373 1.712.576.853.235 1.552.485 2.096.752.544.256.944.581 1.2.976.267.384.4.88.4 1.488s-.149 1.136-.448 1.584c-.288.448-.704.805-1.248 1.072-.533.267-1.168.432-1.904.496v1.104a.319.319 0 0 1-.112.256.319.319 0 0 1-.256.112h-.608zm6.403-1.6a.402.402 0 0 1-.272-.096.404.404 0 0 1-.096-.272v-.512c0-.096.026-.203.08-.32.053-.117.16-.245.32-.384l3.392-3.392c.544-.459.97-.848 1.28-1.168.32-.331.544-.645.672-.944.138-.299.208-.608.208-.928 0-.608-.171-1.088-.512-1.44-.342-.363-.848-.544-1.52-.544-.427 0-.795.091-1.104.272-.31.171-.555.411-.736.72-.171.299-.283.64-.336 1.024-.022.139-.08.235-.176.288a.465.465 0 0 1-.24.08h-.832a.364.364 0 0 1-.24-.08.308.308 0 0 1-.096-.224c.01-.405.096-.811.256-1.216a3.42 3.42 0 0 1 .704-1.12 3.66 3.66 0 0 1 1.168-.8c.469-.213 1.013-.32 1.632-.32.842 0 1.53.155 2.064.464.544.299.944.699 1.2 1.2a3.57 3.57 0 0 1 .384 1.648c0 .469-.08.901-.24 1.296-.16.384-.395.763-.704 1.136a9.227 9.227 0 0 1-1.12 1.12l-3.072 3.12h4.992c.117 0 .208.032.272.096a.341.341 0 0 1 .112.272v.656a.373.373 0 0 1-.112.272.368.368 0 0 1-.272.096h-7.056zm9.31 1.2a.26.26 0 0 1-.208-.096.358.358 0 0 1-.048-.24l.368-2.288a.729.729 0 0 1 .128-.32.383.383 0 0 1 .32-.144h1.072c.075 0 .134.027.176.08.054.053.08.117.08.192a.564.564 0 0 1-.064.256l-.832 2.192a.633.633 0 0 1-.176.256c-.064.075-.16.112-.288.112h-.528zm7.681-1.04c-.672 0-1.259-.08-1.76-.24a4.06 4.06 0 0 1-1.264-.672 3.09 3.09 0 0 1-.784-.912 2.354 2.354 0 0 1-.272-1.024c0-.096.032-.171.096-.224a.364.364 0 0 1 .24-.08h.784c.096 0 .181.021.256.064.074.043.138.133.192.272.106.384.288.683.544.896.266.213.57.363.912.448.352.075.704.112 1.056.112.736 0 1.333-.176 1.792-.528.458-.352.688-.869.688-1.552 0-.693-.208-1.189-.624-1.488-.416-.299-.992-.448-1.728-.448h-1.52a.402.402 0 0 1-.272-.096.368.368 0 0 1-.096-.272v-.432c0-.096.016-.176.048-.24a1.36 1.36 0 0 1 .128-.192l3.104-3.392h-4.72a.402.402 0 0 1-.272-.096.368.368 0 0 1-.096-.272v-.608c0-.117.032-.208.096-.272a.367.367 0 0 1 .272-.112h6.384c.117 0 .208.037.272.112a.341.341 0 0 1 .112.272v.576a.372.372 0 0 1-.064.208c-.032.053-.07.107-.112.16l-3.088 3.44.256.016c.704.021 1.317.149 1.84.384.533.235.944.587 1.232 1.056.298.459.448 1.04.448 1.744 0 .715-.176 1.328-.528 1.84-.352.501-.838.885-1.456 1.152-.619.267-1.318.4-2.096.4zm5.993-.16a.404.404 0 0 1-.272-.096.404.404 0 0 1-.096-.272v-.512c0-.096.027-.203.08-.32.053-.117.16-.245.32-.384l3.392-3.392c.544-.459.971-.848 1.28-1.168.32-.331.544-.645.672-.944.139-.299.208-.608.208-.928 0-.608-.171-1.088-.512-1.44-.341-.363-.848-.544-1.52-.544-.427 0-.795.091-1.104.272a1.913 1.913 0 0 0-.736.72c-.171.299-.283.64-.336 1.024-.021.139-.08.235-.176.288a.459.459 0 0 1-.24.08h-.832a.364.364 0 0 1-.24-.08.308.308 0 0 1-.096-.224c.011-.405.096-.811.256-1.216.16-.416.395-.789.704-1.12a3.66 3.66 0 0 1 1.168-.8c.469-.213 1.013-.32 1.632-.32.843 0 1.531.155 2.064.464.544.299.944.699 1.2 1.2a3.57 3.57 0 0 1 .384 1.648c0 .469-.08.901-.24 1.296-.16.384-.395.763-.704 1.136a9.227 9.227 0 0 1-1.12 1.12l-3.072 3.12h4.992c.117 0 .208.032.272.096a.338.338 0 0 1 .112.272v.656a.369.369 0 0 1-.112.272.368.368 0 0 1-.272.096h-7.056zm13.327.16c-.619 0-1.19-.075-1.712-.224a4.201 4.201 0 0 1-1.328-.672 3.169 3.169 0 0 1-.848-1.072 3.168 3.168 0 0 1-.304-1.408c0-.651.154-1.211.464-1.68.32-.469.741-.827 1.264-1.072a2.707 2.707 0 0 1-.976-.96c-.235-.395-.352-.864-.352-1.408 0-.64.154-1.179.464-1.616.32-.448.762-.795 1.328-1.04.576-.245 1.242-.368 2-.368.746 0 1.402.123 1.968.368.576.235 1.018.576 1.328 1.024.32.448.48.987.48 1.616 0 .544-.118 1.019-.352 1.424a2.758 2.758 0 0 1-.96.96c.522.245.938.603 1.248 1.072.32.469.48 1.029.48 1.68 0 .693-.176 1.296-.528 1.808-.352.501-.843.891-1.472 1.168-.63.267-1.36.4-2.192.4zm0-1.28c.49 0 .933-.085 1.328-.256.394-.171.709-.411.944-.72.234-.32.352-.693.352-1.12 0-.437-.118-.805-.352-1.104a2.194 2.194 0 0 0-.944-.704 3.311 3.311 0 0 0-1.328-.256c-.491 0-.939.085-1.344.256-.395.16-.71.395-.944.704-.235.299-.352.667-.352 1.104 0 .427.117.8.352 1.12.234.309.549.549.944.72.405.171.853.256 1.344.256zm0-5.424c.405 0 .778-.075 1.12-.224a2.06 2.06 0 0 0 .832-.608c.213-.256.32-.565.32-.928a1.52 1.52 0 0 0-.304-.944 1.776 1.776 0 0 0-.816-.608 2.856 2.856 0 0 0-1.152-.224c-.427 0-.816.075-1.168.224a1.887 1.887 0 0 0-.816.608 1.514 1.514 0 0 0-.304.944c0 .373.101.693.304.96.202.256.474.453.816.592.352.139.741.208 1.168.208z"/><path fill="#475569" d="M398.156 194a.303.303 0 0 1-.204-.072.303.303 0 0 1-.072-.204v-7.056h-2.304a.303.303 0 0 1-.204-.072.303.303 0 0 1-.072-.204v-.504c0-.088.024-.156.072-.204a.278.278 0 0 1 .204-.084h5.784c.088 0 .156.028.204.084a.254.254 0 0 1 .084.204v.504c0 .08-.028.148-.084.204-.048.048-.116.072-.204.072h-2.292v7.056c0 .08-.028.148-.084.204-.048.048-.116.072-.204.072h-.624zm4.723 0a.303.303 0 0 1-.204-.072.303.303 0 0 1-.072-.204v-7.968a.26.26 0 0 1 .072-.192.278.278 0 0 1 .204-.084h.6c.088 0 .156.028.204.084a.26.26 0 0 1 .072.192v2.796c.216-.272.48-.492.792-.66.312-.168.708-.252 1.188-.252.52 0 .96.116 1.32.348.368.224.644.54.828.948.192.4.288.868.288 1.404v3.384c0 .08-.024.148-.072.204-.048.048-.116.072-.204.072h-.6a.303.303 0 0 1-.204-.072.303.303 0 0 1-.072-.204V190.4c0-.56-.136-.996-.408-1.308-.272-.32-.672-.48-1.2-.48-.496 0-.896.16-1.2.48-.304.312-.456.748-.456 1.308v3.324c0 .08-.024.148-.072.204-.048.048-.116.072-.204.072h-.6zm7.301 0a.303.303 0 0 1-.204-.072.303.303 0 0 1-.072-.204v-5.688a.26.26 0 0 1 .072-.192.278.278 0 0 1 .204-.084h.576a.24.24 0 0 1 .192.084.26.26 0 0 1 .072.192v5.688c0 .08-.024.148-.072.204a.26.26 0 0 1-.192.072h-.576zm-.096-7.404a.303.303 0 0 1-.204-.072.303.303 0 0 1-.072-.204v-.648a.26.26 0 0 1 .072-.192.278.278 0 0 1 .204-.084h.756a.24.24 0 0 1 .192.084.24.24 0 0 1 .084.192v.648c0 .08-.028.148-.084.204a.26.26 0 0 1-.192.072h-.756zm4.956 7.524c-.448 0-.832-.056-1.152-.168a2.637 2.637 0 0 1-.78-.408 2.1 2.1 0 0 1-.456-.48c-.096-.16-.148-.288-.156-.384-.008-.088.02-.156.084-.204a.32.32 0 0 1 .192-.072h.528c.048 0 .084.008.108.024.032.008.072.04.12.096.104.112.22.224.348.336.128.112.284.204.468.276.192.072.428.108.708.108.408 0 .744-.076 1.008-.228a.767.767 0 0 0 .396-.696c0-.2-.056-.36-.168-.48-.104-.12-.296-.228-.576-.324a9.77 9.77 0 0 0-1.128-.3c-.48-.112-.86-.248-1.14-.408-.28-.168-.48-.364-.6-.588a1.672 1.672 0 0 1-.18-.78c0-.296.088-.58.264-.852.176-.28.432-.508.768-.684.344-.176.772-.264 1.284-.264.416 0 .772.052 1.068.156.296.104.54.236.732.396.192.152.336.304.432.456.096.152.148.28.156.384a.241.241 0 0 1-.072.204.287.287 0 0 1-.192.072h-.504a.275.275 0 0 1-.144-.036.901.901 0 0 1-.096-.084 2.556 2.556 0 0 0-.288-.312 1.13 1.13 0 0 0-.42-.252c-.168-.072-.392-.108-.672-.108-.4 0-.7.084-.9.252-.2.168-.3.38-.3.636 0 .152.044.288.132.408.088.12.256.228.504.324s.616.2 1.104.312c.528.104.944.244 1.248.42.304.176.52.38.648.612.128.232.192.5.192.804 0 .336-.1.644-.3.924-.192.28-.48.504-.864.672-.376.16-.844.24-1.404.24zm7.175-.12a.303.303 0 0 1-.204-.072.303.303 0 0 1-.072-.204v-5.688a.26.26 0 0 1 .072-.192.278.278 0 0 1 .204-.084h.54a.24.24 0 0 1 .192.084.24.24 0 0 1 .084.192v.42c.184-.248.416-.444.696-.588.28-.152.616-.228 1.008-.228.904-.008 1.544.36 1.92 1.104.184-.336.452-.604.804-.804.352-.2.752-.3 1.2-.3.416 0 .792.096 1.128.288.344.192.612.484.804.876.2.384.3.868.3 1.452v3.468c0 .08-.028.148-.084.204a.26.26 0 0 1-.192.072h-.564a.303.303 0 0 1-.204-.072.303.303 0 0 1-.072-.204v-3.36c0-.448-.064-.8-.192-1.056s-.3-.436-.516-.54a1.61 1.61 0 0 0-.708-.156c-.208 0-.42.052-.636.156-.216.104-.396.284-.54.54-.136.256-.204.608-.204 1.056v3.36c0 .08-.028.148-.084.204a.26.26 0 0 1-.192.072h-.564a.303.303 0 0 1-.204-.072.303.303 0 0 1-.072-.204v-3.36c0-.448-.068-.8-.204-1.056-.136-.256-.312-.436-.528-.54a1.557 1.557 0 0 0-.684-.156c-.208 0-.42.052-.636.156-.216.104-.396.284-.54.54-.136.256-.204.604-.204 1.044v3.372c0 .08-.028.148-.084.204a.26.26 0 0 1-.192.072h-.576zm12.944.12c-.608 0-1.116-.116-1.524-.348a2.35 2.35 0 0 1-.936-.96 3.367 3.367 0 0 1-.36-1.416 9.083 9.083 0 0 1-.012-.516 8.7 8.7 0 0 1 .012-.516c.024-.536.144-1.008.36-1.416.224-.408.54-.728.948-.96.408-.232.912-.348 1.512-.348s1.104.116 1.512.348c.408.232.72.552.936.96.224.408.348.88.372 1.416.008.128.012.3.012.516 0 .208-.004.38-.012.516-.024.528-.144 1-.36 1.416a2.35 2.35 0 0 1-.936.96c-.408.232-.916.348-1.524.348zm0-.924c.496 0 .892-.156 1.188-.468.296-.32.456-.784.48-1.392.008-.12.012-.272.012-.456s-.004-.336-.012-.456c-.024-.608-.184-1.068-.48-1.38-.296-.32-.692-.48-1.188-.48s-.896.16-1.2.48c-.296.312-.452.772-.468 1.38-.008.12-.012.272-.012.456s.004.336.012.456c.016.608.172 1.072.468 1.392.304.312.704.468 1.2.468zm4.61.804a.303.303 0 0 1-.204-.072.303.303 0 0 1-.072-.204v-5.688a.26.26 0 0 1 .072-.192.278.278 0 0 1 .204-.084h.564a.24.24 0 0 1 .192.084.24.24 0 0 1 .084.192v.528c.208-.272.468-.492.78-.66.32-.176.728-.264 1.224-.264.52 0 .96.116 1.32.348.368.224.644.54.828.948.184.4.276.868.276 1.404v3.384c0 .08-.024.148-.072.204a.26.26 0 0 1-.192.072h-.6a.303.303 0 0 1-.204-.072.303.303 0 0 1-.072-.204V190.4c0-.56-.136-.996-.408-1.308-.272-.32-.672-.48-1.2-.48-.496 0-.896.16-1.2.48-.296.312-.444.748-.444 1.308v3.324c0 .08-.028.148-.084.204a.26.26 0 0 1-.192.072h-.6zm9.356 0c-.448 0-.812-.084-1.092-.252a1.527 1.527 0 0 1-.612-.732 3.027 3.027 0 0 1-.192-1.128v-3.168h-.936a.303.303 0 0 1-.204-.072.303.303 0 0 1-.072-.204v-.408a.26.26 0 0 1 .072-.192.278.278 0 0 1 .204-.084h.936v-2.004a.26.26 0 0 1 .072-.192.278.278 0 0 1 .204-.084h.564a.24.24 0 0 1 .192.084.24.24 0 0 1 .084.192v2.004h1.488a.24.24 0 0 1 .192.084.24.24 0 0 1 .084.192v.408c0 .08-.028.148-.084.204a.26.26 0 0 1-.192.072h-1.488v3.084c0 .376.064.672.192.888.128.216.356.324.684.324h.732a.24.24 0 0 1 .192.084.24.24 0 0 1 .084.192v.432c0 .08-.028.148-.084.204a.26.26 0 0 1-.192.072h-.828zm2.539 0a.303.303 0 0 1-.204-.072.303.303 0 0 1-.072-.204v-7.968a.26.26 0 0 1 .072-.192.278.278 0 0 1 .204-.084h.6c.088 0 .156.028.204.084a.26.26 0 0 1 .072.192v2.796c.216-.272.48-.492.792-.66.312-.168.708-.252 1.188-.252.52 0 .96.116 1.32.348.368.224.644.54.828.948.192.4.288.868.288 1.404v3.384c0 .08-.024.148-.072.204-.048.048-.116.072-.204.072h-.6a.303.303 0 0 1-.204-.072.303.303 0 0 1-.072-.204V190.4c0-.56-.136-.996-.408-1.308-.272-.32-.672-.48-1.2-.48-.496 0-.896.16-1.2.48-.304.312-.456.748-.456 1.308v3.324c0 .08-.024.148-.072.204-.048.048-.116.072-.204.072h-.6z"/><rect width="32" height="80" x="40" y="318" fill="#594FEE" opacity=".1" rx="2"/><rect width="32" height="119" x="74" y="279" fill="#594FEE" rx="2"/><rect width="32" height="46" x="152" y="352" fill="#594FEE" opacity=".1" rx="2"/><rect width="32" height="2" x="186" y="296" fill="#594FEE" rx="1"/><rect width="32" height="98" x="186" y="300" fill="#594FEE" rx="2"/><rect width="32" height="80" x="264" y="318" fill="#594FEE" opacity=".1" rx="2"/><rect width="32" height="168" x="298" y="230" fill="#594FEE" rx="2"/><rect width="32" height="32" x="376" y="366" fill="#594FEE" rx="2"/><rect width="32" height="20" x="410" y="378" fill="#594FEE" opacity=".1" rx="2"/><g opacity=".1"><mask id="a" fill="#fff"><path d="M24 406h434v4H24v-4z"/></mask><path fill="#020617" d="M24 407.5h434v-3H24v3z" mask="url(#a)"/><path stroke="#020617" stroke-linecap="round" stroke-width="1.5" d="M40 406v4m66-4v4m46-4v4m66-4v4m46-4v4m66-4v4m46-4v4m66-4v4"/></g></svg>