<svg xmlns="http://www.w3.org/2000/svg" width="1200" height="620" fill="none"><g clip-path="url(#a)"><rect width="1200" height="620" fill="#F1F5F9" rx="32"/><g filter="url(#b)"><circle cx="977" cy="168" r="139" fill="#F332F6" fill-opacity=".3"/></g><g filter="url(#c)"><circle cx="134.5" cy="603.5" r="161.5" fill="#32F680" fill-opacity=".3"/></g><g filter="url(#d)" opacity=".2"><circle cx="514.5" cy="310.5" r="210.5" fill="#F69A32"/></g><g clip-path="url(#e)" opacity=".6"><path stroke="#F2F2F2" d="M-747 1182.38h2691.75M-747 1132.5h2691.75M-747 1082.62h2691.75M-747 1032.74h2691.75M-747 982.862h2691.75M-747 932.983h2691.75M-747 883.105h2691.75M-747 833.226h2691.75M-747 783.347h2691.75M-747 733.469h2691.75M-747 683.59h2691.75M-747 633.714h2691.75M-747 583.835h2691.75M-747 533.956h2691.75M-747 484.078h2691.75M-747 434.199h2691.75M-747 384.321h2691.75M-747 334.442h2691.75M-747 284.563h2691.75M-747 234.685h2691.75M-747 184.806h2691.75M-747 134.927h2691.75M-747 85.049h2691.75M-747 35.169h2691.75M-747-14.708h2691.75M-747-64.587h2691.75M-747-114.47h2691.75M-747-164.347h2691.75M-747-214.226h2691.75M-747-264.105h2691.75M-747-313.983h2691.75M-747-363.862h2691.75M-747-413.741h2691.75M-747-463.619h2691.75M-747-513.498h2691.75M-747-563.377h2691.75m-2691.127.624V1183m49.847-1745.753V1183m49.848-1745.753V1183m49.847-1745.753V1183m49.847-1745.753V1183m49.848-1745.753V1183m49.847-1745.753V1183m49.847-1745.753V1183m49.847-1745.753V1183m49.848-1745.753V1183m49.847-1745.753V1183m49.847-1745.753V1183m49.848-1745.753V1183m49.847-1745.753V1183m49.847-1745.753V1183M1.332-562.753V1183m49.85-1745.753V1183M101.03-562.753V1183m49.848-1745.753V1183m49.847-1745.753V1183m49.847-1745.753V1183M300.42-562.753V1183m49.847-1745.753V1183m49.847-1745.753V1183m49.848-1745.753V1183m49.844-1745.753V1183m49.848-1745.753V1183M599.5-562.753V1183m49.847-1745.753V1183m49.847-1745.753V1183m49.848-1745.753V1183m49.847-1745.753V1183m49.847-1745.753V1183m49.848-1745.753V1183m49.847-1745.753V1183m49.847-1745.753V1183m49.852-1745.753V1183m49.84-1745.753V1183m49.85-1745.753V1183m49.85-1745.753V1183m49.84-1745.753V1183m49.85-1745.753V1183m49.85-1745.753V1183m49.85-1745.753V1183m49.84-1745.753V1183m49.85-1745.753V1183m49.85-1745.753V1183m49.85-1745.753V1183m49.84-1745.753V1183m49.85-1745.753V1183m49.85-1745.753V1183m49.84-1745.753V1183m49.85-1745.753V1183m49.85-1745.753V1183m49.85-1745.753V1183"/></g></g><defs><filter id="b" width="678" height="678" x="638" y="-171" color-interpolation-filters="sRGB" filterUnits="userSpaceOnUse"><feFlood flood-opacity="0" result="BackgroundImageFix"/><feBlend in="SourceGraphic" in2="BackgroundImageFix" result="shape"/><feGaussianBlur result="effect1_foregroundBlur_110_910" stdDeviation="100"/></filter><filter id="c" width="723" height="723" x="-227" y="242" color-interpolation-filters="sRGB" filterUnits="userSpaceOnUse"><feFlood flood-opacity="0" result="BackgroundImageFix"/><feBlend in="SourceGraphic" in2="BackgroundImageFix" result="shape"/><feGaussianBlur result="effect1_foregroundBlur_110_910" stdDeviation="100"/></filter><filter id="d" width="821" height="821" x="104" y="-100" color-interpolation-filters="sRGB" filterUnits="userSpaceOnUse"><feFlood flood-opacity="0" result="BackgroundImageFix"/><feBlend in="SourceGraphic" in2="BackgroundImageFix" result="shape"/><feGaussianBlur result="effect1_foregroundBlur_110_910" stdDeviation="100"/></filter><clipPath id="a"><rect width="1200" height="620" fill="#fff" rx="32"/></clipPath><clipPath id="e"><path fill="#fff" d="M-747-564h2693v1747H-747z"/></clipPath></defs></svg>