<svg xmlns="http://www.w3.org/2000/svg" width="138" height="36" fill="none"><rect width="36" height="36" fill="#594FEE" rx="18"/><path fill="#fff" d="M16.268 8c.77-1.333 2.694-1.333 3.464 0l6.928 12c.77 1.333-.192 3-1.732 3H11.072c-1.54 0-2.502-1.667-1.732-3l6.928-12z"/><rect width="2" height="5" x="13" y="24" fill="#fff" rx="1"/><rect width="2" height="5" x="17" y="26" fill="#fff" rx="1"/><rect width="2" height="5" x="21" y="24" fill="#fff" rx="1"/><path fill="#020617" d="M55.02 23.29c-1.467 0-2.727-.293-3.78-.88a6.076 6.076 0 0 1-2.4-2.52c-.56-1.093-.84-2.38-.84-3.86s.28-2.76.84-3.84a5.949 5.949 0 0 1 2.4-2.5c1.053-.6 2.313-.9 3.78-.9.987 0 1.873.14 2.66.42.8.28 1.487.693 2.06 1.24l-.84 2.04c-.627-.507-1.233-.867-1.82-1.08-.573-.227-1.233-.34-1.98-.34-1.427 0-2.52.433-3.28 1.3-.747.853-1.12 2.073-1.12 3.66 0 1.587.373 2.813 1.12 3.68.76.867 1.853 1.3 3.28 1.3.747 0 1.407-.107 1.98-.32.587-.227 1.193-.6 1.82-1.12l.84 2.04a6.032 6.032 0 0 1-2.06 1.24c-.787.293-1.673.44-2.66.44zm10.788 0c-1.04 0-1.94-.213-2.7-.64a4.5 4.5 0 0 1-1.78-1.82c-.413-.787-.62-1.72-.62-2.8 0-1.08.207-2.007.62-2.78a4.5 4.5 0 0 1 1.78-1.82c.76-.427 1.66-.64 2.7-.64 1.04 0 1.94.213 2.7.64a4.34 4.34 0 0 1 1.78 1.82c.427.773.64 1.7.64 2.78 0 1.08-.213 2.013-.64 2.8a4.34 4.34 0 0 1-1.78 1.82c-.76.427-1.66.64-2.7.64zm0-1.92c.787 0 1.414-.273 1.88-.82.467-.56.7-1.4.7-2.52s-.233-1.953-.7-2.5c-.466-.547-1.093-.82-1.88-.82-.786 0-1.413.273-1.88.82-.466.547-.7 1.38-.7 2.5s.234 1.96.7 2.52c.467.547 1.094.82 1.88.82zm7.276 1.72v-7.58a20.175 20.175 0 0 0-.16-2.52h2.42l.2 2h-.24c.32-.707.794-1.247 1.42-1.62.627-.387 1.354-.58 2.18-.58 1.187 0 2.08.333 2.68 1 .6.667.9 1.707.9 3.12v6.18h-2.5v-6.06c0-.813-.16-1.393-.48-1.74-.306-.36-.773-.54-1.4-.54-.773 0-1.386.24-1.84.72-.453.48-.68 1.12-.68 1.92v5.7h-2.5zm14.913 0-4.36-10.1h2.66l3.16 7.9h-.62l3.24-7.9h2.5l-4.38 10.1h-2.2zm12.604.2c-1.693 0-3.02-.467-3.98-1.4-.96-.933-1.44-2.213-1.44-3.84 0-1.053.207-1.973.62-2.76a4.58 4.58 0 0 1 1.72-1.84c.747-.44 1.613-.66 2.6-.66.973 0 1.787.207 2.44.62.653.413 1.147.993 1.48 1.74.347.747.52 1.62.52 2.62v.66h-7.36v-1.32h5.58l-.34.28c0-.933-.2-1.647-.6-2.14-.387-.493-.953-.74-1.7-.74-.827 0-1.467.293-1.92.88-.44.587-.66 1.407-.66 2.46v.26c0 1.093.267 1.913.8 2.46.547.533 1.313.8 2.3.8a5.59 5.59 0 0 0 1.6-.22c.507-.16.987-.413 1.44-.76l.74 1.68a5.266 5.266 0 0 1-1.72.9 6.916 6.916 0 0 1-2.12.32zm6.057-.2v-7.52c0-.427-.013-.86-.04-1.3-.013-.44-.047-.867-.1-1.28h2.42l.28 2.76h-.4c.133-.667.353-1.22.66-1.66.32-.44.707-.767 1.16-.98.453-.213.947-.32 1.48-.32.24 0 .433.013.58.04.147.013.293.047.44.1l-.02 2.2a2.747 2.747 0 0 0-.66-.2 4.464 4.464 0 0 0-.66-.04c-.573 0-1.06.12-1.46.36a2.29 2.29 0 0 0-.88 1c-.187.427-.28.913-.28 1.46v5.38h-2.52zm12.758.2c-1.2 0-2.107-.313-2.72-.94s-.92-1.567-.92-2.82v-4.66h-1.94v-1.88h1.94v-2.58l2.5-.64v3.22h2.7v1.88h-2.7v4.5c0 .693.133 1.18.4 1.46s.633.42 1.1.42c.253 0 .467-.02.64-.06a3.58 3.58 0 0 0 .54-.16v1.98c-.227.093-.48.16-.76.2a3.98 3.98 0 0 1-.78.08zm3.258-.2V8.37h2.5v14.72h-2.5zm5.015 4.54-.58-1.98a9.524 9.524 0 0 0 1.58-.46c.427-.173.78-.4 1.06-.68s.513-.64.7-1.08l.5-1.18-.06.98-4.4-10.24h2.66l3.16 7.88h-.58l3.18-7.88h2.52l-4.6 10.66c-.307.72-.64 1.313-1 1.78-.36.48-.747.86-1.16 1.14a5 5 0 0 1-1.36.68 10.65 10.65 0 0 1-1.62.38z"/></svg>